<svg version="1.1" id="Layer_1" xmlns="http://www.w3.org/2000/svg" xmlns:xlink="http://www.w3.org/1999/xlink" x="0px" y="0px"
	 width="100%" viewBox="0 0 268 241" enable-background="new 0 0 268 241" xml:space="preserve">
<path fill="#000000" opacity="1.000000" stroke="none" 
	d="
M269.000000,83.000000 
	C269.000000,136.333328 269.000000,189.166672 269.000000,242.000000 
	C179.666672,242.000000 90.333336,242.000000 1.000000,242.000000 
	C1.000000,161.666672 1.000000,81.333336 1.000000,1.000000 
	C90.333336,1.000000 179.666672,1.000000 269.000000,1.000000 
	C269.000000,28.166666 269.000000,55.333332 269.000000,83.000000 
M45.978237,142.003128 
	C45.978237,142.003128 45.966312,141.946899 45.501003,142.120026 
	C45.201580,142.312271 45.031990,142.585159 44.931484,142.929794 
	C44.931484,142.929794 44.938915,142.990738 44.469719,143.146774 
	C44.177410,143.343277 44.004967,143.615692 43.937725,143.964325 
	C43.937725,143.964325 43.922516,143.971115 43.299862,144.234314 
	C39.858810,147.479965 36.417759,150.725616 33.000153,154.000000 
	C33.000153,154.000000 32.980774,153.968445 32.491859,154.138184 
	C32.326187,154.429459 32.160515,154.720718 31.440664,155.263794 
	C31.043755,155.721359 30.646847,156.178909 29.715166,156.971252 
	C26.076637,162.216583 22.022198,167.229340 18.920963,172.775131 
	C16.037504,177.931503 18.061388,185.126205 23.155916,186.749985 
	C28.948751,188.596375 35.250122,189.145004 41.376335,189.532822 
	C44.887512,189.755081 48.598000,188.906326 52.030937,187.899399 
	C62.521942,184.822189 72.956940,181.537064 83.299995,178.000259 
	C84.268883,177.668961 85.133446,174.783783 84.749268,173.461182 
	C84.445992,172.417084 81.852463,171.031357 80.781364,171.374512 
	C71.143616,174.462204 61.617573,177.898590 51.189171,181.122955 
	C44.154263,181.411453 37.119354,181.699951 29.686602,181.402084 
	C26.360624,180.023300 25.307360,177.960342 26.913363,174.408890 
	C29.991278,167.602554 34.086250,162.150742 43.021370,160.992233 
	C52.347752,160.978943 61.674126,160.959473 71.000511,160.954575 
	C77.044472,160.951401 83.091164,161.086548 89.131706,160.946915 
	C95.898689,160.790482 95.933128,160.805069 95.106331,167.588333 
	C94.826309,169.885742 94.961731,172.249405 95.069771,174.575241 
	C95.291595,179.351135 95.897301,184.124283 95.856926,188.894424 
	C95.746033,201.997772 95.248222,215.098846 95.234985,228.201172 
	C95.232384,230.775543 95.880569,233.799683 99.954208,233.886353 
	C108.654411,234.071472 117.346596,234.817001 126.044609,234.864044 
	C133.147461,234.902466 140.251007,234.154556 147.359848,233.953217 
	C153.133820,233.789688 158.916122,233.920013 165.607529,233.920013 
	C164.664124,231.772354 164.296478,230.189285 163.398361,229.010315 
	C156.922409,220.509430 149.964203,212.351059 143.870651,203.589096 
	C132.506561,187.248535 124.582283,169.192719 118.860901,150.158768 
	C118.005852,147.314148 116.548508,145.706207 113.177498,145.949844 
	C108.869469,146.261185 104.488419,145.710388 100.205223,146.161469 
	C97.651436,146.430435 95.277519,148.104080 92.726746,148.788467 
	C90.070503,149.501160 86.685226,150.968460 84.731598,149.956787 
	C82.241394,148.667236 79.620415,145.363586 79.313026,142.670486 
	C78.879761,138.874603 81.340919,135.814056 85.685356,134.479095 
	C89.985802,133.157669 92.739861,135.256348 94.475578,138.181488 
	C96.321747,141.292770 98.459709,142.163940 101.750473,141.964447 
	C105.068932,141.763260 108.409889,141.906631 111.740547,141.941193 
	C114.777138,141.972687 116.235199,141.450363 115.340515,137.574875 
	C113.791924,130.866852 113.029457,123.968414 112.172661,117.120399 
	C112.059761,116.218040 113.330254,115.142609 113.960030,114.147331 
	C114.646042,114.945206 115.784729,115.665604 115.936928,116.554840 
	C116.492325,119.799805 116.394478,123.176186 117.133446,126.366226 
	C118.893066,133.962234 120.989540,141.480209 123.009293,149.786118 
	C123.660408,151.844131 124.311523,153.902145 124.958862,156.025909 
	C124.958862,156.025909 125.024574,156.029129 125.066460,156.631271 
	C125.365868,157.103867 125.665276,157.576462 126.032219,158.532181 
	C126.032219,158.532181 126.196564,158.991470 126.152718,159.707504 
	C126.522682,160.829849 126.892647,161.952209 127.243004,163.507416 
	C127.397057,163.780746 127.629929,163.935593 127.937714,164.045135 
	C127.937714,164.045135 128.010895,164.049072 128.067856,164.773239 
	C130.370117,169.186111 132.672363,173.598984 135.057449,178.611801 
	C135.367325,179.085938 135.677216,179.560089 136.058731,180.696960 
	C136.711304,181.791763 137.363892,182.886566 138.099686,184.497940 
	C138.149780,184.664978 138.199890,184.832031 138.333878,185.657089 
	C139.542252,187.445984 140.750626,189.234879 142.052444,191.729980 
	C150.301025,204.234207 158.628021,216.674133 169.630768,227.030304 
	C175.095993,232.174377 181.099136,236.433990 188.438507,238.445435 
	C193.590363,239.857376 198.241776,237.995758 200.253555,233.040588 
	C201.705551,229.464188 202.689163,225.475739 202.838303,221.630600 
	C203.491562,204.787628 198.762665,189.079773 191.692520,174.019852 
	C191.100128,172.758011 188.588379,171.565384 187.123444,171.728989 
	C184.563675,172.014877 183.034302,174.014999 184.194412,176.808426 
	C185.762177,180.583466 187.554367,184.265320 189.179306,188.754822 
	C192.528229,199.245407 195.571259,209.792969 195.029663,221.745422 
	C194.735596,223.944916 195.095291,226.628998 193.938782,228.189194 
	C193.028259,229.417557 189.643585,230.275177 188.406189,229.537933 
	C183.715149,226.743011 179.450592,223.232254 174.976501,219.177551 
	C174.600983,201.122528 174.225464,183.067520 173.980530,164.232346 
	C174.586212,160.342285 177.527451,161.933792 179.656342,161.910370 
	C191.073792,161.784790 202.492218,161.748093 214.841904,161.871658 
	C223.611877,161.604767 232.444550,160.590164 241.131104,161.318390 
	C247.550476,161.856537 247.901917,158.901810 247.898407,154.308716 
	C247.883911,135.327652 247.967987,116.346367 247.890976,97.365677 
	C247.882370,95.246292 247.078445,93.130142 246.430069,89.974449 
	C240.282822,95.072372 235.276672,99.519821 229.967087,103.569450 
	C216.321518,113.976952 201.532761,122.548264 185.904602,129.567017 
	C177.827805,133.194382 169.378845,135.993118 160.308121,139.348328 
	C159.622345,144.259171 158.936569,149.169998 158.102875,154.860519 
	C158.387131,156.580719 158.671387,158.300934 159.065857,160.653122 
	C159.858246,161.630188 160.650635,162.607269 161.558121,163.370163 
	C161.558121,163.370163 161.407852,163.561325 161.798248,164.244568 
	C162.869583,168.359528 164.743103,172.749710 160.222763,175.912857 
	C155.722717,179.061783 151.615921,177.553802 147.994553,174.006882 
	C147.994553,174.006882 148.044418,173.990326 147.921997,173.233994 
	C147.857178,170.804550 147.792358,168.375092 147.919037,165.445404 
	C147.946365,165.268967 147.973679,165.092514 148.403198,164.775269 
	C148.667892,164.621674 148.820053,164.393173 149.027191,164.101227 
	C149.027191,164.101227 149.075226,163.940308 149.536377,163.854279 
	C149.838699,163.675064 149.974304,163.410431 150.573288,162.734970 
	C154.601440,161.159805 155.650467,158.123581 154.926453,153.792572 
	C154.974625,153.543152 155.014328,153.292374 155.488556,152.891052 
	C155.817139,152.697220 155.904526,152.425613 155.873138,151.245407 
	C155.174881,148.024002 154.476624,144.802612 153.748810,141.332230 
	C153.631393,141.157486 153.483612,141.127228 152.575882,141.129852 
	C152.332458,141.165466 152.089020,141.201080 151.106171,141.101089 
	C149.061752,141.724991 147.017334,142.348907 144.134583,143.025375 
	C141.435562,143.430527 138.736526,143.835678 135.520889,144.143723 
	C135.348724,144.176239 135.176544,144.208771 134.343460,144.106979 
	C133.897095,144.145279 133.450714,144.183563 132.264954,144.351761 
	C129.323303,145.565491 127.207275,145.403625 127.174370,141.423920 
	C134.664078,140.194336 142.055679,139.440704 149.217529,137.726974 
	C183.616333,129.495895 213.621429,113.106964 238.925980,88.336998 
	C241.680328,85.640846 243.672928,82.166504 246.623489,78.740768 
	C247.670319,76.801994 248.717148,74.863220 249.914581,72.501854 
	C249.914581,72.501854 249.997192,72.060913 250.475372,71.877357 
	C250.567322,71.576462 250.659286,71.275566 250.866653,70.494995 
	C250.866653,70.494995 250.912277,70.003761 251.525497,69.452034 
	C254.089737,58.651859 247.208633,54.909634 238.916122,54.128296 
	C232.986008,53.569546 226.953171,54.101070 220.207886,54.333462 
	C215.442383,55.619968 210.676880,56.906471 205.150497,58.095364 
	C199.765640,60.054234 194.370758,61.986042 188.998703,63.979412 
	C183.385544,66.062248 182.870773,68.288406 186.651093,72.402199 
	C195.049591,69.626221 203.162247,66.362038 211.573257,64.337013 
	C219.190475,62.503105 227.106262,61.495426 234.940048,61.094975 
	C242.313690,60.718044 244.709534,65.675545 241.408691,72.301659 
	C237.913574,79.317795 232.437469,83.014656 224.679123,83.050461 
	C209.022202,83.122719 193.364426,83.037758 177.707275,82.961349 
	C176.762512,82.956741 175.820175,82.458122 174.442856,82.002151 
	C174.442856,82.002151 173.977798,81.918610 174.015671,81.981400 
	C174.015671,81.981400 174.078445,81.943512 174.008911,81.163719 
	C173.930405,80.126793 173.851883,79.089867 173.894226,77.285622 
	C173.853790,76.512238 173.813339,75.738861 173.926392,74.086143 
	C173.867661,71.409241 173.808914,68.732330 173.864807,65.124741 
	C173.815735,60.741421 173.766663,56.358105 173.866119,51.337963 
	C173.917252,50.905331 173.968384,50.472694 174.488525,49.893970 
	C174.585907,49.762653 174.683289,49.631340 174.780670,49.500027 
	C174.529724,49.314629 174.278763,49.129230 173.961090,48.037735 
	C174.008789,44.701401 174.056488,41.365063 174.691605,37.684223 
	C174.474075,36.452858 174.256546,35.221489 173.972351,33.163879 
	C174.018250,31.785595 174.064133,30.407309 174.741974,28.615566 
	C174.531830,26.730579 174.321686,24.845594 173.999191,22.320866 
	C174.040817,21.891729 174.082443,21.462593 174.769318,20.571623 
	C174.777710,18.724800 174.786102,16.877977 174.895950,14.269717 
	C174.256027,10.010281 171.591324,8.906104 167.571472,8.936169 
	C148.432678,9.079299 129.292068,8.971186 110.153091,9.100321 
	C107.841133,9.115921 105.535210,10.026985 101.640839,10.863709 
	C104.618958,13.321763 106.304626,14.713066 108.298569,16.709703 
	C111.416885,20.522121 114.752594,24.178740 117.615952,28.173889 
	C130.111084,45.608025 140.514114,64.200226 147.784897,84.433090 
	C152.647034,97.963295 152.543472,97.984520 167.085144,97.926826 
	C170.553940,97.913063 173.818741,98.060799 176.710785,95.201202 
	C178.141937,93.786110 181.001282,92.977104 183.060333,93.216927 
	C186.868362,93.660484 189.650833,95.819725 190.083740,100.223572 
	C190.529465,104.758049 188.276230,107.359596 184.496124,109.083206 
	C180.559357,110.878258 177.989960,108.593781 175.459045,106.051292 
	C173.770737,104.355255 172.053406,101.597107 170.149139,101.415970 
	C164.887833,100.915497 159.521606,101.518150 153.810593,101.696716 
	C155.105591,110.511597 155.797958,118.063889 157.471817,125.391983 
	C158.280304,128.931534 156.952393,129.329697 154.822189,129.771820 
	C152.778793,119.604996 151.138687,109.537712 148.686798,99.672165 
	C144.534576,82.964958 137.124496,67.569427 128.280869,52.878105 
	C120.876900,40.578381 112.726921,28.811699 101.884087,18.498486 
	C101.586823,18.308199 101.289551,18.117914 101.005890,17.992186 
	C101.005890,17.992186 101.067688,17.969059 100.786430,17.358175 
	C98.534950,15.543155 96.283478,13.728135 94.021629,11.974461 
	C94.021629,11.974461 94.083084,11.964756 93.793518,11.380546 
	C92.667534,10.700494 91.541557,10.020442 90.496880,9.384069 
	C90.496880,9.384069 90.540428,9.302690 90.116188,8.794346 
	C88.747833,8.169116 87.379471,7.543887 86.007782,6.981710 
	C86.007782,6.981710 86.069496,6.968363 85.617859,6.326313 
	C81.715172,6.222428 77.812477,6.118543 73.217468,6.101034 
	C65.496506,10.602712 66.102997,18.811594 66.445541,25.483181 
	C66.937065,35.056499 69.933388,44.501209 71.986885,54.772873 
	C73.986740,59.520863 75.986595,64.268852 78.001221,68.998451 
	C78.001221,68.998451 77.980026,69.009674 78.169479,69.505219 
	C78.797035,69.712349 79.424599,69.919472 80.824196,70.015495 
	C83.767204,70.034706 85.638809,69.541306 84.097145,65.771660 
	C81.847435,60.270706 80.013962,54.599518 77.923103,48.184612 
	C76.528992,39.768295 75.134888,31.351980 73.877289,22.307610 
	C73.826096,21.884525 73.774902,21.461443 73.873039,20.271210 
	C75.754845,13.650242 77.664543,12.756166 85.344345,15.649396 
	C92.679977,18.928986 95.647484,24.272369 95.211761,32.559952 
	C94.574661,44.677872 95.073776,56.855465 95.085815,69.007622 
	C95.090187,73.415459 95.086517,77.823296 95.086517,81.712616 
	C86.116661,82.211212 78.096741,82.920624 70.067772,83.044678 
	C56.252632,83.258141 42.431831,83.092659 28.613455,83.115723 
	C23.152550,83.124840 22.397177,83.973366 22.148912,90.870895 
	C22.177059,107.938545 22.205204,125.006187 22.121025,142.904953 
	C22.620024,145.916611 23.119022,148.928268 23.735924,152.651520 
	C32.723824,145.864639 40.221478,139.734543 48.184731,134.284760 
	C66.297211,121.889175 85.669937,111.955666 106.852966,105.834671 
	C109.770844,104.991531 111.202209,103.440361 111.011002,100.145882 
	C110.741402,95.500656 111.203056,90.808609 110.851746,86.174500 
	C110.692406,84.072678 109.729889,81.756401 108.437271,80.069572 
	C105.103790,75.719490 105.136169,71.615181 109.033752,68.297951 
	C111.654243,66.067673 117.686874,66.374741 119.969215,68.854576 
	C122.996056,72.143341 123.209427,78.479538 119.476418,80.815010 
	C114.108429,84.173363 113.992043,88.961510 114.052399,94.151154 
	C114.128532,100.696938 113.204399,104.134888 123.417374,101.345253 
	C128.602158,99.929047 134.096817,99.599953 139.475510,98.993095 
	C140.260788,98.904503 141.180664,100.008759 142.038254,100.561073 
	C141.453217,101.376099 140.994812,102.755508 140.263702,102.919556 
	C132.232162,104.721596 124.144348,106.270813 116.100677,108.021309 
	C110.983482,109.134933 105.799355,110.123619 100.844528,111.768608 
	C81.138649,118.310913 63.638885,128.977310 46.486946,141.138641 
	C46.307430,141.409546 46.127911,141.680435 45.978237,142.003128 
M151.040985,170.192673 
	C152.859863,171.350876 154.678726,172.509079 156.497604,173.667297 
	C157.638977,171.547729 159.240662,169.514786 159.664902,167.260269 
	C159.807877,166.500427 156.958771,164.296524 155.483612,164.302689 
	C152.695831,164.314331 150.579132,166.013260 151.040985,170.192673 
M83.032539,141.688065 
	C83.632431,146.050674 86.539841,148.175171 89.213104,146.003754 
	C90.441299,145.006119 91.609016,143.129425 91.596970,141.661270 
	C91.587143,140.462769 89.639420,138.194916 88.804184,138.306000 
	C86.840340,138.567108 85.027992,139.967621 83.032539,141.688065 
M178.965546,104.243523 
	C182.035461,106.952179 184.679810,105.376671 186.290207,102.780731 
	C186.930908,101.747955 185.949341,98.828514 184.790649,97.819771 
	C183.737717,96.903122 180.362350,96.723763 179.910324,97.431908 
	C178.826279,99.130142 178.858398,101.540840 178.965546,104.243523 
M110.146675,75.997597 
	C110.613373,76.663048 111.021568,77.839127 111.557472,77.900528 
	C113.337807,78.104507 115.216736,78.131157 116.939865,77.725082 
	C117.441231,77.606934 118.055855,75.129875 117.749825,74.902290 
	C116.180931,73.735558 114.398628,72.646439 112.532593,72.215088 
	C111.966377,72.084206 110.894920,74.139076 110.146675,75.997597 
z"/>
<path fill="#7926A5" opacity="1.000000" stroke="none" 
	d="
M46.991508,141.166962 
	C63.638885,128.977310 81.138649,118.310913 100.844528,111.768608 
	C105.799355,110.123619 110.983482,109.134933 116.100677,108.021309 
	C124.144348,106.270813 132.232162,104.721596 140.263702,102.919556 
	C140.994812,102.755508 141.453217,101.376099 142.038254,100.561066 
	C141.180664,100.008759 140.260788,98.904503 139.475510,98.993095 
	C134.096817,99.599953 128.602158,99.929047 123.417374,101.345253 
	C113.204399,104.134888 114.128532,100.696938 114.052399,94.151154 
	C113.992043,88.961510 114.108429,84.173363 119.476418,80.815010 
	C123.209427,78.479538 122.996056,72.143341 119.969215,68.854576 
	C117.686874,66.374741 111.654243,66.067673 109.033752,68.297951 
	C105.136169,71.615181 105.103790,75.719490 108.437271,80.069572 
	C109.729889,81.756401 110.692406,84.072678 110.851746,86.174500 
	C111.203056,90.808609 110.741402,95.500656 111.011002,100.145882 
	C111.202209,103.440361 109.770844,104.991531 106.852966,105.834671 
	C85.669937,111.955666 66.297211,121.889175 48.184731,134.284760 
	C40.221478,139.734543 32.723824,145.864639 23.735924,152.651520 
	C23.119022,148.928268 22.620024,145.916611 22.461079,142.463196 
	C23.519947,140.558334 24.846809,139.101959 24.863159,137.631027 
	C25.019951,123.524590 25.051205,109.414246 24.835983,95.309319 
	C24.808411,93.502289 23.168468,91.719872 22.275465,89.926048 
	C22.397177,83.973366 23.152550,83.124840 28.613455,83.115723 
	C42.431831,83.092659 56.252632,83.258141 70.067772,83.044678 
	C78.096741,82.920624 86.116661,82.211212 95.086517,81.712616 
	C95.086517,77.823296 95.090187,73.415459 95.085815,69.007622 
	C95.073776,56.855465 94.574661,44.677872 95.211761,32.559952 
	C95.647484,24.272369 92.679977,18.928986 85.118393,15.000937 
	C84.332878,10.836846 82.341019,10.030831 79.140480,11.169157 
	C74.499313,12.819869 72.385986,16.583359 73.723717,21.038359 
	C73.774902,21.461443 73.826096,21.884525 73.558685,22.773727 
	C72.788033,24.069670 71.842041,24.978937 71.960747,25.716963 
	C73.081024,32.682331 74.312767,39.632706 75.714920,46.546329 
	C75.904427,47.480766 77.212776,48.188297 78.003052,49.000896 
	C80.013962,54.599518 81.847435,60.270706 84.097145,65.771660 
	C85.638809,69.541306 83.767204,70.034706 80.192375,69.908150 
	C79.033714,69.537094 78.506866,69.273384 77.980026,69.009674 
	C77.980026,69.009674 78.001221,68.998451 77.988976,68.602753 
	C75.937950,63.471645 73.899170,58.736237 71.860390,54.000824 
	C69.933388,44.501209 66.937065,35.056499 66.445541,25.483181 
	C66.102997,18.811594 65.496506,10.602712 74.003021,6.062991 
	C78.548874,6.339419 82.309189,6.653891 86.069496,6.968363 
	C86.069496,6.968363 86.007782,6.981710 86.179153,7.246631 
	C87.747154,8.108597 89.143791,8.705643 90.540428,9.302689 
	C90.540428,9.302690 90.496880,9.384069 90.623154,9.671095 
	C91.860649,10.626999 92.971863,11.295878 94.083084,11.964757 
	C94.083084,11.964756 94.021629,11.974461 94.086502,12.297197 
	C96.456810,14.402975 98.762245,16.186016 101.067688,17.969059 
	C101.067688,17.969059 101.005890,17.992186 101.158951,18.159479 
	C101.565453,18.553251 101.818886,18.779730 102.072319,19.006210 
	C112.726921,28.811699 120.876900,40.578381 128.280869,52.878105 
	C137.124496,67.569427 144.534576,82.964958 148.686798,99.672165 
	C151.138687,109.537712 152.778793,119.604996 154.822189,129.771820 
	C156.952393,129.329697 158.280304,128.931534 157.471817,125.391983 
	C155.797958,118.063889 155.105591,110.511597 153.810593,101.696716 
	C159.521606,101.518150 164.887833,100.915497 170.149139,101.415970 
	C172.053406,101.597107 173.770737,104.355255 175.459045,106.051292 
	C177.989960,108.593781 180.559357,110.878258 184.496124,109.083206 
	C188.276230,107.359596 190.529465,104.758049 190.083740,100.223572 
	C189.650833,95.819725 186.868362,93.660484 183.060333,93.216927 
	C181.001282,92.977104 178.141937,93.786110 176.710785,95.201202 
	C173.818741,98.060799 170.553940,97.913063 167.085144,97.926826 
	C152.543472,97.984520 152.647034,97.963295 147.784897,84.433090 
	C140.514114,64.200226 130.111084,45.608025 117.615952,28.173889 
	C114.752594,24.178740 111.416885,20.522121 108.130714,16.071030 
	C107.780937,11.424927 110.763878,12.004305 113.138748,11.998696 
	C130.849289,11.956868 148.560104,11.947685 166.270386,12.027838 
	C168.207916,12.036606 170.142578,12.675827 172.060150,13.488779 
	C172.038498,26.636417 172.035278,39.317905 172.024323,52.468033 
	C172.011307,55.082451 171.929443,57.231281 172.014511,59.373478 
	C172.314240,66.921669 172.671234,74.467590 173.274643,81.998901 
	C173.721329,81.970131 173.899887,81.956825 174.078445,81.943512 
	C174.078445,81.943512 174.015671,81.981400 174.098465,82.021255 
	C174.398315,82.182640 174.630127,82.225395 174.876709,82.189377 
	C175.820175,82.458122 176.762512,82.956741 177.707275,82.961349 
	C193.364426,83.037758 209.022202,83.122719 224.679123,83.050461 
	C232.437469,83.014656 237.913574,79.317795 241.408691,72.301659 
	C244.709534,65.675545 242.313690,60.718044 234.940048,61.094975 
	C227.106262,61.495426 219.190475,62.503105 211.573257,64.337013 
	C203.162247,66.362038 195.049591,69.626221 186.651093,72.402199 
	C182.870773,68.288406 183.385544,66.062248 188.998703,63.979412 
	C194.370758,61.986042 199.765640,60.054234 205.552582,58.344418 
	C205.954666,58.593472 205.993317,58.994507 205.973846,59.007774 
	C205.954376,59.021042 206.006027,59.007267 206.417953,58.980865 
	C214.884460,57.946083 222.939041,56.937702 231.365753,55.922905 
	C232.482224,55.917137 233.226562,55.917789 234.217102,55.913368 
	C234.463272,55.908302 234.955368,55.888687 235.382477,55.896091 
	C247.186737,56.783241 249.320847,58.775700 250.912277,70.003761 
	C250.912277,70.003761 250.866653,70.494995 250.667114,70.905167 
	C250.287003,71.548866 250.130219,71.797394 249.997192,72.060913 
	C249.997192,72.060913 249.914581,72.501854 249.548050,72.873474 
	C248.127304,75.181091 247.073074,77.117096 246.018845,79.053101 
	C243.672928,82.166504 241.680328,85.640846 238.925980,88.336998 
	C213.621429,113.106964 183.616333,129.495895 149.217529,137.726974 
	C142.055679,139.440704 134.664078,140.194336 127.174370,141.423920 
	C127.207275,145.403625 129.323303,145.565491 132.588837,144.629669 
	C132.026672,148.605377 129.798813,149.883331 126.098007,148.895935 
	C125.129486,148.637512 124.003563,148.969086 122.949936,149.029709 
	C120.989540,141.480209 118.893066,133.962234 117.133446,126.366226 
	C116.394478,123.176186 116.492325,119.799805 115.936928,116.554840 
	C115.784729,115.665604 114.646042,114.945206 113.960037,114.147339 
	C113.330254,115.142609 112.059761,116.218040 112.172661,117.120399 
	C113.029457,123.968414 113.791924,130.866852 115.340515,137.574875 
	C116.235199,141.450363 114.777138,141.972687 111.740547,141.941193 
	C108.409889,141.906631 105.068932,141.763260 101.750473,141.964447 
	C98.459709,142.163940 96.321747,141.292770 94.475578,138.181488 
	C92.739861,135.256348 89.985802,133.157669 85.685356,134.479095 
	C81.340919,135.814056 78.879761,138.874603 79.313026,142.670486 
	C79.620415,145.363586 82.241394,148.667236 84.731598,149.956787 
	C86.685226,150.968460 90.070503,149.501160 92.726746,148.788467 
	C95.277519,148.104080 97.651436,146.430435 100.205223,146.161469 
	C104.488419,145.710388 108.869469,146.261185 113.177498,145.949844 
	C116.548508,145.706207 118.005852,147.314148 118.860901,150.158768 
	C124.582283,169.192719 132.506561,187.248535 143.870651,203.589096 
	C149.964203,212.351059 156.922409,220.509430 163.398361,229.010315 
	C164.296478,230.189285 164.664124,231.772354 165.607529,233.920013 
	C158.916122,233.920013 153.133820,233.789688 147.359848,233.953217 
	C140.251007,234.154556 133.147461,234.902466 126.044609,234.864044 
	C117.346596,234.817001 108.654411,234.071472 99.954208,233.886353 
	C95.880569,233.799683 95.232384,230.775543 95.234985,228.201172 
	C95.248222,215.098846 95.746033,201.997772 95.856926,188.894424 
	C95.897301,184.124283 95.291595,179.351135 95.069771,174.575241 
	C94.961731,172.249405 94.826309,169.885742 95.106331,167.588333 
	C95.933128,160.805069 95.898689,160.790482 89.131706,160.946915 
	C83.091164,161.086548 77.044472,160.951401 71.000511,160.954575 
	C61.674126,160.959473 52.347752,160.978943 42.143250,161.006775 
	C37.867680,161.021301 34.470222,161.021301 31.099295,161.021301 
	C30.798651,159.469223 30.524294,158.052841 30.249939,156.636475 
	C30.646847,156.178909 31.043755,155.721359 31.895851,154.976654 
	C32.580338,154.466080 32.790249,154.225739 32.980774,153.968445 
	C32.980774,153.968445 33.000153,154.000000 33.278439,154.011993 
	C38.354103,152.056915 42.856148,149.785324 43.922516,143.971115 
	C43.922516,143.971115 43.937725,143.964325 44.123337,143.815857 
	C44.538097,143.459671 44.748085,143.234131 44.938915,142.990738 
	C44.938915,142.990738 44.931484,142.929794 45.137016,142.782486 
	C45.568832,142.422409 45.776752,142.192978 45.966312,141.946899 
	C45.966312,141.946899 45.978237,142.003128 46.145706,141.857880 
	C46.548733,141.542496 46.774845,141.360611 46.991508,141.166962 
z"/>
<path fill="#7926A5" opacity="1.000000" stroke="none" 
	d="
M122.979614,149.407913 
	C124.003563,148.969086 125.129486,148.637512 126.098007,148.895935 
	C129.798813,149.883331 132.026672,148.605377 132.958542,144.564728 
	C133.450714,144.183563 133.897095,144.145279 134.738266,144.409409 
	C135.673386,145.121262 136.213715,145.530701 136.754028,145.940125 
	C136.515182,145.373688 136.276352,144.807266 136.037506,144.240845 
	C138.736526,143.835678 141.435562,143.430527 144.689545,143.324860 
	C147.495361,144.749176 149.746216,145.874008 152.128433,147.304596 
	C153.101349,149.789642 153.942917,151.968918 154.784485,154.148193 
	C155.650467,158.123581 154.601440,161.159805 150.102554,163.031631 
	C149.429779,163.517288 149.244247,163.721298 149.075226,163.940308 
	C149.075226,163.940308 149.027191,164.101227 148.793457,164.223389 
	C148.363068,164.525528 148.176834,164.715714 148.000992,164.916077 
	C147.973679,165.092514 147.946365,165.268967 147.586487,165.892899 
	C144.911743,169.159622 143.596603,171.872711 148.044418,173.990326 
	C148.044418,173.990326 147.994553,174.006882 148.067963,174.330322 
	C149.563675,179.320297 152.891586,180.874207 157.403152,179.994156 
	C162.414734,179.016556 166.163513,174.044449 165.911301,169.124893 
	C165.759369,166.161362 164.741211,163.933182 161.407852,163.561325 
	C161.407852,163.561325 161.558121,163.370163 161.454971,163.148621 
	C160.553101,161.958435 159.754379,160.989792 158.955658,160.021133 
	C158.671387,158.300934 158.387131,156.580719 158.485825,154.332001 
	C163.784760,149.559921 161.190720,144.172592 161.098038,139.166229 
	C169.378845,135.993118 177.827805,133.194382 185.904602,129.567017 
	C201.532761,122.548264 216.321518,113.976952 229.967087,103.569450 
	C235.276672,99.519821 240.282822,95.072372 246.430069,89.974449 
	C247.078445,93.130142 247.882370,95.246292 247.890976,97.365677 
	C247.967987,116.346367 247.883911,135.327652 247.898407,154.308716 
	C247.901917,158.901810 247.550476,161.856537 241.131104,161.318390 
	C232.444550,160.590164 223.611877,161.604767 214.018250,161.670197 
	C207.548416,160.315323 201.941635,158.537643 196.245392,158.178421 
	C190.156799,157.794464 183.983093,158.737000 177.847946,159.122864 
	C174.181747,159.353439 171.832779,160.925156 172.031647,165.469757 
	C172.016586,181.750031 171.889771,197.563583 172.133713,213.371414 
	C172.167984,215.591705 174.017334,217.783981 175.026520,219.989227 
	C179.450592,223.232254 183.715149,226.743011 188.406189,229.537933 
	C189.643585,230.275177 193.028259,229.417557 193.938782,228.189194 
	C195.095291,226.628998 194.735596,223.944916 195.352814,221.281250 
	C195.998932,218.212646 196.758057,215.575516 196.565720,213.009720 
	C195.904114,204.183258 194.949097,195.370102 189.250259,187.987152 
	C187.554367,184.265320 185.762177,180.583466 184.194412,176.808426 
	C183.034302,174.014999 184.563675,172.014877 187.123444,171.728989 
	C188.588379,171.565384 191.100128,172.758011 191.692520,174.019852 
	C198.762665,189.079773 203.491562,204.787628 202.838303,221.630600 
	C202.689163,225.475739 201.705551,229.464188 200.253555,233.040588 
	C198.241776,237.995758 193.590363,239.857376 188.438507,238.445435 
	C181.099136,236.433990 175.095993,232.174377 169.630768,227.030304 
	C158.628021,216.674133 150.301025,204.234207 142.270142,191.339844 
	C143.971451,191.239120 145.455078,191.528549 147.192719,191.867538 
	C146.814026,185.553848 142.921814,184.744141 138.250000,184.999084 
	C138.199890,184.832031 138.149780,184.664978 138.185654,183.953476 
	C138.813019,181.402100 139.304672,179.428848 135.987091,180.034225 
	C135.677216,179.560089 135.367325,179.085938 135.249969,178.133636 
	C135.836411,176.686203 136.809570,175.480759 136.526871,174.787308 
	C135.075592,171.227463 133.301300,167.799301 131.351669,163.722519 
	C130.925583,163.764160 129.468246,163.906616 128.010895,164.049072 
	C128.010895,164.049072 127.937714,164.045135 127.833145,163.854919 
	C127.581741,163.461288 127.426422,163.264572 127.262604,163.074554 
	C126.892647,161.952209 126.522682,160.829849 126.255920,159.275238 
	C126.227638,158.578354 126.096161,158.313705 125.964676,158.049072 
	C125.665276,157.576462 125.365868,157.103867 125.224091,156.212143 
	C125.640625,155.418747 125.899529,155.044479 126.158424,154.670227 
	C125.977516,154.570724 125.796608,154.471222 125.615700,154.371735 
	C125.398018,154.901215 125.180336,155.430679 124.962646,155.960159 
	C124.311523,153.902145 123.660408,151.844131 122.979614,149.407913 
M153.006165,156.517548 
	C153.006165,156.517548 152.996582,156.482773 153.006165,156.517548 
z"/>
<path fill="#73279E" opacity="1.000000" stroke="none" 
	d="
M29.982552,156.803864 
	C30.524294,158.052841 30.798651,159.469223 31.099295,161.021301 
	C34.470222,161.021301 37.867680,161.021301 41.681152,161.029434 
	C34.086250,162.150742 29.991278,167.602554 26.913363,174.408890 
	C25.307360,177.960342 26.360624,180.023300 29.733814,181.846893 
	C31.284256,183.045227 32.755497,184.365601 34.296345,184.452560 
	C40.431561,184.798813 46.809574,185.944016 52.058731,181.232605 
	C61.617573,177.898590 71.143616,174.462204 80.781364,171.374512 
	C81.852463,171.031357 84.445992,172.417084 84.749268,173.461182 
	C85.133446,174.783783 84.268883,177.668961 83.299995,178.000259 
	C72.956940,181.537064 62.521942,184.822189 52.030937,187.899399 
	C48.598000,188.906326 44.887512,189.755081 41.376335,189.532822 
	C35.250122,189.145004 28.948751,188.596375 23.155916,186.749985 
	C18.061388,185.126205 16.037504,177.931503 18.920963,172.775131 
	C22.022198,167.229340 26.076637,162.216583 29.982552,156.803864 
z"/>
<path fill="#7A3F9E" opacity="1.000000" stroke="none" 
	d="
M172.078568,13.022632 
	C170.142578,12.675827 168.207916,12.036606 166.270386,12.027838 
	C148.560104,11.947685 130.849289,11.956868 113.138748,11.998696 
	C110.763878,12.004305 107.780937,11.424927 107.976578,15.768364 
	C106.304626,14.713066 104.618958,13.321763 101.640839,10.863709 
	C105.535210,10.026985 107.841133,9.115921 110.153091,9.100321 
	C129.292068,8.971186 148.432678,9.079299 167.571472,8.936169 
	C171.591324,8.906104 174.256027,10.010281 174.632812,14.524088 
	C173.942017,14.541289 173.514359,14.304121 172.925171,13.886192 
	C172.544922,13.468184 172.316559,13.240582 172.078568,13.022632 
z"/>
<path fill="#7A39A2" opacity="1.000000" stroke="none" 
	d="
M22.212189,90.398468 
	C23.168468,91.719872 24.808411,93.502289 24.835983,95.309319 
	C25.051205,109.414246 25.019951,123.524590 24.863159,137.631027 
	C24.846809,139.101959 23.519947,140.558334 22.517242,142.047638 
	C22.205204,125.006187 22.177059,107.938545 22.212189,90.398468 
z"/>
<path fill="#7F32A7" opacity="1.000000" stroke="none" 
	d="
M175.001511,219.583389 
	C174.017334,217.783981 172.167984,215.591705 172.133713,213.371414 
	C171.889771,197.563583 172.016586,181.750031 172.333145,165.470749 
	C173.043915,165.006287 173.446945,165.009399 173.849945,165.012497 
	C174.225464,183.067520 174.600983,201.122528 175.001511,219.583389 
z"/>
<path fill="#7B2EA4" opacity="1.000000" stroke="none" 
	d="
M173.915253,164.622421 
	C173.446945,165.009399 173.043915,165.006287 172.339386,165.002197 
	C171.832779,160.925156 174.181747,159.353439 177.847946,159.122864 
	C183.983093,158.737000 190.156799,157.794464 196.245392,158.178421 
	C201.941635,158.537643 207.548416,160.315323 213.552444,161.574738 
	C202.492218,161.748093 191.073792,161.784790 179.656342,161.910370 
	C177.527451,161.933792 174.586212,160.342285 173.915253,164.622421 
z"/>
<path fill="#7A339F" opacity="1.000000" stroke="none" 
	d="
M161.603058,163.902954 
	C164.741211,163.933182 165.759369,166.161362 165.911301,169.124893 
	C166.163513,174.044449 162.414734,179.016556 157.403152,179.994156 
	C152.891586,180.874207 149.563675,179.320297 148.077545,174.305847 
	C151.615921,177.553802 155.722717,179.061783 160.222763,175.912857 
	C164.743103,172.749710 162.869583,168.359528 161.603058,163.902954 
z"/>
<path fill="#712997" opacity="1.000000" stroke="none" 
	d="
M151.022308,169.796417 
	C150.579132,166.013260 152.695831,164.314331 155.483612,164.302689 
	C156.958771,164.296524 159.807877,166.500427 159.664902,167.260269 
	C159.240662,169.514786 157.638977,171.547729 156.497604,173.667297 
	C154.678726,172.509079 152.859863,171.350876 151.022308,169.796417 
z"/>
<path fill="#733E9B" opacity="1.000000" stroke="none" 
	d="
M233.970917,55.918438 
	C233.226562,55.917789 232.482224,55.917137 231.003494,55.780350 
	C227.168137,55.144852 224.067139,54.645485 220.966156,54.146122 
	C226.953171,54.101070 232.986008,53.569546 238.916122,54.128296 
	C247.208633,54.909634 254.089737,58.651859 251.218887,69.727898 
	C249.320847,58.775700 247.186737,56.783241 235.261627,55.870975 
	C234.460846,55.811459 234.213257,55.838120 233.970917,55.918438 
z"/>
<path fill="#773C9F" opacity="1.000000" stroke="none" 
	d="
M189.214783,188.370987 
	C194.949097,195.370102 195.904114,204.183258 196.565720,213.009720 
	C196.758057,215.575516 195.998932,218.212646 195.428909,220.898483 
	C195.571259,209.792969 192.528229,199.245407 189.214783,188.370987 
z"/>
<path fill="#762D99" opacity="1.000000" stroke="none" 
	d="
M83.093445,141.297577 
	C85.027992,139.967621 86.840340,138.567108 88.804184,138.306000 
	C89.639420,138.194916 91.587143,140.462769 91.596970,141.661270 
	C91.609016,143.129425 90.441299,145.006119 89.213104,146.003754 
	C86.539841,148.175171 83.632431,146.050674 83.093445,141.297577 
z"/>
<path fill="#782B98" opacity="1.000000" stroke="none" 
	d="
M178.702789,103.953766 
	C178.858398,101.540840 178.826279,99.130142 179.910324,97.431908 
	C180.362350,96.723763 183.737717,96.903122 184.790649,97.819771 
	C185.949341,98.828514 186.930908,101.747955 186.290207,102.780731 
	C184.679810,105.376671 182.035461,106.952179 178.702789,103.953766 
z"/>
<path fill="#8739B3" opacity="1.000000" stroke="none" 
	d="
M172.060150,13.488779 
	C172.316559,13.240582 172.544922,13.468184 172.916016,14.289140 
	C173.420273,16.926384 173.772171,18.979921 174.124054,21.033459 
	C174.082443,21.462593 174.040817,21.891729 173.901978,22.961260 
	C173.906525,25.410778 174.008270,27.219902 174.110016,29.029024 
	C174.064133,30.407309 174.018250,31.785595 173.870651,33.851067 
	C173.880692,35.701744 173.992432,36.865238 174.104172,38.028728 
	C174.056488,41.365063 174.008789,44.701401 173.985062,48.764778 
	C174.012543,49.674568 174.016037,49.857315 174.019516,50.040062 
	C173.968384,50.472694 173.917252,50.905331 173.510681,51.654934 
	C172.780853,51.981071 172.406448,51.990234 172.032059,51.999397 
	C172.035278,39.317905 172.038498,26.636417 172.060150,13.488779 
z"/>
<path fill="#7B39AB" opacity="1.000000" stroke="none" 
	d="
M51.623951,181.177780 
	C46.809574,185.944016 40.431561,184.798813 34.296345,184.452560 
	C32.755497,184.365601 31.284256,183.045227 29.932735,182.140076 
	C37.119354,181.699951 44.154263,181.411453 51.623951,181.177780 
z"/>
<path fill="#7934A6" opacity="1.000000" stroke="none" 
	d="
M77.963074,48.592754 
	C77.212776,48.188297 75.904427,47.480766 75.714920,46.546329 
	C74.312767,39.632706 73.081024,32.682331 71.960747,25.716963 
	C71.842041,24.978937 72.788033,24.069670 73.490433,23.087753 
	C75.134888,31.351980 76.528992,39.768295 77.963074,48.592754 
z"/>
<path fill="#7926A5" opacity="1.000000" stroke="none" 
	d="
M128.039368,164.411163 
	C129.468246,163.906616 130.925583,163.764160 131.351669,163.722519 
	C133.301300,167.799301 135.075592,171.227463 136.526871,174.787308 
	C136.809570,175.480759 135.836411,176.686203 135.208557,177.833679 
	C132.672363,173.598984 130.370117,169.186111 128.039368,164.411163 
z"/>
<path fill="#6B1D8B" opacity="1.000000" stroke="none" 
	d="
M110.100777,75.595215 
	C110.894920,74.139076 111.966377,72.084206 112.532593,72.215088 
	C114.398628,72.646439 116.180931,73.735558 117.749825,74.902290 
	C118.055855,75.129875 117.441231,77.606934 116.939865,77.725082 
	C115.216736,78.131157 113.337807,78.104507 111.557472,77.900528 
	C111.021568,77.839127 110.613373,76.663048 110.100777,75.595215 
z"/>
<path fill="#8036A8" opacity="1.000000" stroke="none" 
	d="
M172.024323,52.468033 
	C172.406448,51.990234 172.780853,51.981071 173.436401,51.973343 
	C173.766663,56.358105 173.815735,60.741421 173.683136,65.945282 
	C173.591949,69.499039 173.682419,72.232262 173.772888,74.965477 
	C173.813339,75.738861 173.853790,76.512238 173.708694,77.981735 
	C173.350937,79.790016 173.178711,80.902191 173.006500,82.014374 
	C172.671234,74.467590 172.314240,66.921669 172.014511,59.373478 
	C171.929443,57.231281 172.011307,55.082451 172.024323,52.468033 
z"/>
<path fill="#8140AA" opacity="1.000000" stroke="none" 
	d="
M220.587021,54.239792 
	C224.067139,54.645485 227.168137,55.144852 230.631378,55.786766 
	C222.939041,56.937702 214.884460,57.946083 206.414948,58.977303 
	C206.000000,59.000145 205.993317,58.994507 205.993317,58.994507 
	C205.993317,58.994507 205.954666,58.593472 205.933014,58.393223 
	C210.676880,56.906471 215.442383,55.619968 220.587021,54.239792 
z"/>
<path fill="#7934A6" opacity="1.000000" stroke="none" 
	d="
M73.798378,20.654785 
	C72.385986,16.583359 74.499313,12.819869 79.140480,11.169157 
	C82.341019,10.030831 84.332878,10.836846 84.947273,14.706661 
	C77.664543,12.756166 75.754845,13.650242 73.798378,20.654785 
z"/>
<path fill="#7926A5" opacity="1.000000" stroke="none" 
	d="
M138.291931,185.328094 
	C142.921814,184.744141 146.814026,185.553848 147.192719,191.867538 
	C145.455078,191.528549 143.971451,191.239120 142.223419,190.986725 
	C140.750626,189.234879 139.542252,187.445984 138.291931,185.328094 
z"/>
<path fill="#8135AA" opacity="1.000000" stroke="none" 
	d="
M160.703079,139.257278 
	C161.190720,144.172592 163.784760,149.559921 158.559784,153.942154 
	C158.936569,149.169998 159.622345,144.259171 160.703079,139.257278 
z"/>
<path fill="#73279E" opacity="1.000000" stroke="none" 
	d="
M43.611191,144.102722 
	C42.856148,149.785324 38.354103,152.056915 33.266716,153.997620 
	C36.417759,150.725616 39.858810,147.479965 43.611191,144.102722 
z"/>
<path fill="#7926A5" opacity="1.000000" stroke="none" 
	d="
M151.997086,146.998840 
	C149.746216,145.874008 147.495361,144.749176 145.108704,143.298584 
	C147.017334,142.348907 149.061752,141.724991 151.381729,141.344101 
	C151.770554,143.391022 151.883820,145.194931 151.997086,146.998840 
z"/>
<path fill="#832EA9" opacity="1.000000" stroke="none" 
	d="
M152.128433,147.304596 
	C151.883820,145.194931 151.770554,143.391022 151.751434,141.411896 
	C152.089020,141.201080 152.332458,141.165466 152.999512,141.266220 
	C153.423126,141.402588 153.778381,141.581207 153.778381,141.581207 
	C154.476624,144.802612 155.174881,148.024002 155.684540,151.814621 
	C155.326477,152.589371 155.176331,152.808167 155.045532,153.040237 
	C155.014328,153.292374 154.974625,153.543152 154.855469,153.970383 
	C153.942917,151.968918 153.101349,149.789642 152.128433,147.304596 
z"/>
<path fill="#7338A2" opacity="1.000000" stroke="none" 
	d="
M71.923637,54.386848 
	C73.899170,58.736237 75.937950,63.471645 77.981590,68.611954 
	C75.986595,64.268852 73.986740,59.520863 71.923637,54.386848 
z"/>
<path fill="#763C98" opacity="1.000000" stroke="none" 
	d="
M100.927063,17.663616 
	C98.762245,16.186016 96.456810,14.402975 94.091682,12.266525 
	C96.283478,13.728135 98.534950,15.543155 100.927063,17.663616 
z"/>
<path fill="#7A339F" opacity="1.000000" stroke="none" 
	d="
M147.983215,173.612152 
	C143.596603,171.872711 144.911743,169.159622 147.490738,166.143021 
	C147.792358,168.375092 147.857178,170.804550 147.983215,173.612152 
z"/>
<path fill="#763C98" opacity="1.000000" stroke="none" 
	d="
M85.843674,6.647338 
	C82.309189,6.653891 78.548874,6.339419 74.349182,6.019802 
	C77.812477,6.118543 81.715172,6.222428 85.843674,6.647338 
z"/>
<path fill="#7926A5" opacity="1.000000" stroke="none" 
	d="
M136.022919,180.365601 
	C139.304672,179.428848 138.813019,181.402100 138.144043,183.695190 
	C137.363892,182.886566 136.711304,181.791763 136.022919,180.365601 
z"/>
<path fill="#773099" opacity="1.000000" stroke="none" 
	d="
M174.446686,20.802540 
	C173.772171,18.979921 173.420273,16.926384 173.077530,14.469899 
	C173.514359,14.304121 173.942017,14.541289 174.582092,14.904807 
	C174.786102,16.877977 174.777710,18.724800 174.446686,20.802540 
z"/>
<path fill="#773099" opacity="1.000000" stroke="none" 
	d="
M174.425995,28.822296 
	C174.008270,27.219902 173.906525,25.410778 173.958145,23.281132 
	C174.321686,24.845594 174.531830,26.730579 174.425995,28.822296 
z"/>
<path fill="#733E9B" opacity="1.000000" stroke="none" 
	d="
M246.321167,78.896935 
	C247.073074,77.117096 248.127304,75.181091 249.472748,73.084763 
	C248.717148,74.863220 247.670319,76.801994 246.321167,78.896935 
z"/>
<path fill="#773099" opacity="1.000000" stroke="none" 
	d="
M173.849640,74.525810 
	C173.682419,72.232262 173.591949,69.499039 173.625824,66.410629 
	C173.808914,68.732330 173.867661,71.409241 173.849640,74.525810 
z"/>
<path fill="#773099" opacity="1.000000" stroke="none" 
	d="
M174.397888,37.856476 
	C173.992432,36.865238 173.880692,35.701744 173.903976,34.264191 
	C174.256546,35.221489 174.474075,36.452858 174.397888,37.856476 
z"/>
<path fill="#763C98" opacity="1.000000" stroke="none" 
	d="
M90.328308,9.048517 
	C89.143791,8.705643 87.747154,8.108597 86.180817,7.215104 
	C87.379471,7.543887 88.747833,8.169116 90.328308,9.048517 
z"/>
<path fill="#7926A5" opacity="1.000000" stroke="none" 
	d="
M135.779205,144.192276 
	C136.276352,144.807266 136.515182,145.373688 136.754028,145.940125 
	C136.213715,145.530701 135.673386,145.121262 135.068726,144.476562 
	C135.176544,144.208771 135.348724,144.176239 135.779205,144.192276 
z"/>
<path fill="#7A339F" opacity="1.000000" stroke="none" 
	d="
M159.010757,160.337128 
	C159.754379,160.989792 160.553101,161.958435 161.397430,163.255707 
	C160.650635,162.607269 159.858246,161.630188 159.010757,160.337128 
z"/>
<path fill="#763C98" opacity="1.000000" stroke="none" 
	d="
M93.938301,11.672651 
	C92.971863,11.295878 91.860649,10.626999 90.582504,9.649255 
	C91.541557,10.020442 92.667534,10.700494 93.938301,11.672651 
z"/>
<path fill="#773099" opacity="1.000000" stroke="none" 
	d="
M173.274628,81.998901 
	C173.178711,80.902191 173.350937,79.790016 173.648270,78.365387 
	C173.851883,79.089867 173.930405,80.126793 174.043671,81.553619 
	C173.899887,81.956825 173.721329,81.970131 173.274628,81.998901 
z"/>
<path fill="#7338A2" opacity="1.000000" stroke="none" 
	d="
M78.074753,69.257446 
	C78.506866,69.273384 79.033714,69.537094 79.806351,69.963699 
	C79.424599,69.919472 78.797035,69.712349 78.074753,69.257446 
z"/>
<path fill="#7926A5" opacity="1.000000" stroke="none" 
	d="
M125.998444,158.290619 
	C126.096161,158.313705 126.227638,158.578354 126.277847,158.917236 
	C126.196564,158.991470 126.032219,158.532181 125.998444,158.290619 
z"/>
<path fill="#763C98" opacity="1.000000" stroke="none" 
	d="
M101.978203,18.752346 
	C101.818886,18.779730 101.565453,18.553251 101.152145,18.127201 
	C101.289551,18.117914 101.586823,18.308199 101.978203,18.752346 
z"/>
<path fill="#73279E" opacity="1.000000" stroke="none" 
	d="
M32.736317,154.053314 
	C32.790249,154.225739 32.580338,154.466080 32.172939,154.850739 
	C32.160515,154.720718 32.326187,154.429459 32.736317,154.053314 
z"/>
<path fill="#7A339F" opacity="1.000000" stroke="none" 
	d="
M148.202087,164.845673 
	C148.176834,164.715714 148.363068,164.525528 148.709686,164.217651 
	C148.820053,164.393173 148.667892,164.621674 148.202087,164.845673 
z"/>
<path fill="#7A339F" opacity="1.000000" stroke="none" 
	d="
M149.305801,163.897293 
	C149.244247,163.721298 149.429779,163.517288 149.787506,163.194336 
	C149.974304,163.410431 149.838699,163.675064 149.305801,163.897293 
z"/>
<path fill="#773099" opacity="1.000000" stroke="none" 
	d="
M174.254028,49.967018 
	C174.016037,49.857315 174.012543,49.674568 174.018433,49.217827 
	C174.278763,49.129230 174.529724,49.314629 174.780670,49.500027 
	C174.683289,49.631340 174.585907,49.762653 174.254028,49.967018 
z"/>
<path fill="#7926A5" opacity="1.000000" stroke="none" 
	d="
M127.252808,163.290985 
	C127.426422,163.264572 127.581741,163.461288 127.835098,163.818329 
	C127.629929,163.935593 127.397057,163.780746 127.252808,163.290985 
z"/>
<path fill="#7926A5" opacity="1.000000" stroke="none" 
	d="
M155.267044,152.965637 
	C155.176331,152.808167 155.326477,152.589371 155.623352,152.230042 
	C155.904526,152.425613 155.817139,152.697220 155.267044,152.965637 
z"/>
<path fill="#73279E" opacity="1.000000" stroke="none" 
	d="
M44.704315,143.068756 
	C44.748085,143.234131 44.538097,143.459671 44.130669,143.815674 
	C44.004967,143.615692 44.177410,143.343277 44.704315,143.068756 
z"/>
<path fill="#73279E" opacity="1.000000" stroke="none" 
	d="
M45.733658,142.033463 
	C45.776752,142.192978 45.568832,142.422409 45.167389,142.786926 
	C45.031990,142.585159 45.201580,142.312271 45.733658,142.033463 
z"/>
<path fill="#7926A5" opacity="1.000000" stroke="none" 
	d="
M153.763596,141.456726 
	C153.778381,141.581207 153.423126,141.402588 153.364288,141.322021 
	C153.483612,141.127228 153.631393,141.157486 153.763596,141.456726 
z"/>
<path fill="#73279E" opacity="1.000000" stroke="none" 
	d="
M46.739227,141.152802 
	C46.774845,141.360611 46.548733,141.542496 46.130783,141.831970 
	C46.127911,141.680435 46.307430,141.409546 46.739227,141.152802 
z"/>
<path fill="#733E9B" opacity="1.000000" stroke="none" 
	d="
M250.236282,71.969131 
	C250.130219,71.797394 250.287003,71.548866 250.609406,71.145004 
	C250.659286,71.275566 250.567322,71.576462 250.236282,71.969131 
z"/>
<path fill="#773099" opacity="1.000000" stroke="none" 
	d="
M174.659790,82.095764 
	C174.630127,82.225395 174.398315,82.182640 174.079529,81.989868 
	C173.977798,81.918610 174.442856,82.002151 174.659790,82.095764 
z"/>
<path fill="#8140AA" opacity="1.000000" stroke="none" 
	d="
M234.217102,55.913368 
	C234.213257,55.838120 234.460846,55.811459 234.834518,55.863571 
	C234.955368,55.888687 234.463272,55.908302 234.217102,55.913368 
z"/>
<path fill="#8140AA" opacity="1.000000" stroke="none" 
	d="
M206.003021,59.003708 
	C206.006027,59.007267 205.954376,59.021042 205.973846,59.007774 
	C205.993317,58.994507 206.000000,59.000145 206.003021,59.003708 
z"/>
<path fill="#7926A5" opacity="1.000000" stroke="none" 
	d="
M124.960754,155.993042 
	C125.180336,155.430679 125.398018,154.901215 125.615700,154.371735 
	C125.796608,154.471222 125.977516,154.570724 126.158424,154.670227 
	C125.899529,155.044479 125.640625,155.418747 125.203156,155.911072 
	C125.024574,156.029129 124.958862,156.025909 124.960754,155.993042 
z"/>
<path fill="#832EA9" opacity="1.000000" stroke="none" 
	d="
M153.001373,156.500153 
	C152.996582,156.482773 153.006165,156.517548 153.001373,156.500153 
z"/>
</svg>